<?xml version="1.0" standalone="no"?><!DOCTYPE svg PUBLIC "-//W3C//DTD SVG 1.1//EN" "http://www.w3.org/Graphics/SVG/1.1/DTD/svg11.dtd"><svg t="1571300656718" class="icon" viewBox="0 0 1024 1024" version="1.1" xmlns="http://www.w3.org/2000/svg" p-id="2545" xmlns:xlink="http://www.w3.org/1999/xlink" width="32" height="32"><defs><style type="text/css"></style></defs><path d="M332.1856 399.36a18.5344 18.5344 0 0 1-13.2096-5.5296 140.9536 140.9536 0 0 1 0-199.2192 18.7392 18.7392 0 1 1 26.4704 26.4704 103.5776 103.5776 0 0 0 0 146.2784A18.7904 18.7904 0 0 1 332.1856 399.36z" fill="#FF4A41" p-id="2546"></path><path d="M411.5456 372.8384a18.7392 18.7392 0 0 1-13.2608-5.4784 103.7312 103.7312 0 0 1 0-146.7392A18.7392 18.7392 0 1 1 424.96 247.0912a66.56 66.56 0 0 0 0 93.7984 18.7392 18.7392 0 0 1-13.2096 31.9488zM266.24 465.152a18.688 18.688 0 0 1-13.2096-5.4784 234.5472 234.5472 0 0 1 0-331.3664 18.7392 18.7392 0 1 1 26.4704 26.4704 197.0688 197.0688 0 0 0 0 278.4256A18.7392 18.7392 0 0 1 266.24 465.152zM691.8144 399.36a18.5344 18.5344 0 0 0 13.2096-5.5296 140.9536 140.9536 0 0 0 0-199.2192 18.7392 18.7392 0 0 0-26.4704 26.4704 103.5776 103.5776 0 0 1 0 146.2784 18.7904 18.7904 0 0 0 13.2608 32z" fill="#FB8A13" p-id="2547"></path><path d="M612.4544 372.8384a18.7392 18.7392 0 0 0 13.2608-5.4784 103.7312 103.7312 0 0 0 0-146.7392 18.7392 18.7392 0 1 0-26.6752 26.4704 66.56 66.56 0 0 1 0 93.7984 18.7392 18.7392 0 0 0 13.2096 31.9488zM757.76 465.152a18.688 18.688 0 0 0 13.2096-5.4784 234.5472 234.5472 0 0 0 0-331.3664 18.7392 18.7392 0 0 0-26.4704 26.4704 197.0688 197.0688 0 0 1 0 278.4256 18.7392 18.7392 0 0 0 13.2608 31.9488z" fill="#FF4A41" p-id="2548"></path><path d="M512 293.9904m-43.9296 0a43.9296 43.9296 0 1 0 87.8592 0 43.9296 43.9296 0 1 0-87.8592 0Z" fill="#2B4360" p-id="2549"></path><path d="M593.0496 643.84a19.2 19.2 0 0 1-17.4592-11.1104L506.5216 485.5296l-68.352 145.664a19.3024 19.3024 0 1 1-34.9184-16.384l78.6944-167.7824a27.136 27.136 0 0 1 49.1008 0l79.4624 169.3184a19.3024 19.3024 0 0 1-9.2672 25.6 19.6608 19.6608 0 0 1-8.192 1.8944zM704.1536 901.12H309.6064a42.5984 42.5984 0 0 1-34.6112-16.5376 31.488 31.488 0 0 1-2.5088-34.2016l40.96-75.52a21.8624 21.8624 0 0 1 27.2384-8.5504 16.8448 16.8448 0 0 1 9.8304 23.6544l-40.96 75.52h394.5472l-40.704-75.52a16.8448 16.8448 0 0 1 9.8304-23.6544 21.8624 21.8624 0 0 1 27.2384 8.5504l40.96 75.52a31.488 31.488 0 0 1-2.5088 34.2016 42.5984 42.5984 0 0 1-34.7648 16.5376z" fill="#2B4360" p-id="2550"></path><path d="M244.736 715.3152m-33.536 0a33.536 33.536 0 1 0 67.072 0 33.536 33.536 0 1 0-67.072 0Z" fill="#2B4360" p-id="2551"></path><path d="M506.88 715.3152m-33.536 0a33.536 33.536 0 1 0 67.072 0 33.536 33.536 0 1 0-67.072 0Z" fill="#2B4360" p-id="2552"></path><path d="M342.272 690.3808m16.3328 0l53.0432 0q16.3328 0 16.3328 16.3328l0 13.9264q0 16.3328-16.3328 16.3328l-53.0432 0q-16.3328 0-16.3328-16.3328l0-13.9264q0-16.3328 16.3328-16.3328Z" fill="#2B4360" p-id="2553"></path><path d="M769.024 715.3152m-33.536 0a33.536 33.536 0 1 0 67.072 0 33.536 33.536 0 1 0-67.072 0Z" fill="#2B4360" p-id="2554"></path><path d="M604.416 690.3808m16.3328 0l53.0432 0q16.3328 0 16.3328 16.3328l0 13.9264q0 16.3328-16.3328 16.3328l-53.0432 0q-16.3328 0-16.3328-16.3328l0-13.9264q0-16.3328 16.3328-16.3328Z" fill="#2B4360" p-id="2555"></path></svg>