<?xml version="1.0" standalone="no"?><!DOCTYPE svg PUBLIC "-//W3C//DTD SVG 1.1//EN" "http://www.w3.org/Graphics/SVG/1.1/DTD/svg11.dtd"><svg t="1573698130426" class="icon" viewBox="0 0 1024 1024" version="1.1" xmlns="http://www.w3.org/2000/svg" p-id="12379" xmlns:xlink="http://www.w3.org/1999/xlink" width="16" height="16"><defs><style type="text/css"></style></defs><path d="M586.13 127.99c20.2 0 36.57 16.37 36.57 36.57v36.57c0 20.19-16.37 36.57-36.57 36.57s-36.57-16.37-36.57-36.57v-36.57c0.01-20.2 16.38-36.57 36.57-36.57z m-146.26 0c20.2 0 36.57 16.37 36.57 36.57v36.57c0 20.19-16.37 36.57-36.57 36.57s-36.57-16.37-36.57-36.57v-36.57c0-20.2 16.37-36.57 36.57-36.57z m-31.88 205.6c-12.3-13.38-11.42-34.2 1.96-46.5 13.38-12.3 34.2-11.42 46.5 1.96 14.52 15.79 34.8 24.92 56.55 24.92 21.92 0 42.22-9.1 56.66-24.88 12.27-13.41 33.09-14.32 46.5-2.05 13.41 12.27 14.32 33.09 2.05 46.5-26.8 29.27-64.66 46.25-105.2 46.25-40.4 0.01-78.18-17-105.02-46.2zM513 676.48c-60.58 0-109.7-49.11-109.7-109.7s49.11-109.7 109.7-109.7 109.7 49.11 109.7 109.7-49.12 109.7-109.7 109.7z m0-54.85c30.29 0 54.85-24.56 54.85-54.85s-24.56-54.85-54.85-54.85-54.85 24.56-54.85 54.85 24.56 54.85 54.85 54.85z m123.76-208.86c56.3 30.85 93.01 89.61 93.01 154.01 0 66.95-36.05 126.61-93.7 156.22-14.37 7.38-32.01 1.71-39.38-12.66-7.38-14.37-1.71-32.01 12.66-39.39 38.05-19.54 61.92-59.05 61.92-104.17 0-42.48-24.62-81.88-62.62-102.7-14.17-7.76-19.36-25.54-11.6-39.71 7.76-14.17 25.54-19.36 39.71-11.6z m-242.83 0c14.17-7.76 31.95-2.57 39.71 11.6 7.76 14.17 2.57 31.95-11.6 39.71-38 20.82-62.62 60.22-62.62 102.7 0 45.12 23.88 84.64 61.92 104.17 14.37 7.38 20.04 25.01 12.66 39.39-7.38 14.37-25.01 20.04-39.38 12.66-57.66-29.6-93.7-89.27-93.7-156.22 0-64.4 36.71-123.16 93.01-154.01z m-111.5-161.88c14.01-11.58 34.75-9.62 46.33 4.39 11.58 14.01 9.62 34.75-4.39 46.33-67.61 55.92-107.56 139.05-107.56 228.61 0 163.58 132.61 296.19 296.19 296.19S809.19 693.8 809.19 530.22c0-89.68-40.06-172.57-108.09-228.56-14.03-11.55-16.04-32.29-4.49-46.32 11.55-14.03 32.29-16.04 46.32-4.49 83.05 68.36 132.08 169.8 132.08 279.38 0 199.93-162.08 362.01-362.01 362.01S150.99 730.15 150.99 530.22c0-109.38 48.85-211.04 131.44-279.33z" p-id="12380" fill="#13227a"></path></svg>