<?xml version="1.0" standalone="no"?><!DOCTYPE svg PUBLIC "-//W3C//DTD SVG 1.1//EN" "http://www.w3.org/Graphics/SVG/1.1/DTD/svg11.dtd"><svg t="1573697734488" class="icon" viewBox="0 0 1024 1024" version="1.1" xmlns="http://www.w3.org/2000/svg" p-id="10767" xmlns:xlink="http://www.w3.org/1999/xlink" width="16" height="16"><defs><style type="text/css"></style></defs><path d="M428.20984011 659.9768264c4.72956208 29.26416094-9.94954637 58.24112356-36.34002981 71.74119971-26.39384164 13.50007615-58.47961687 8.44468532-79.44353258-12.51923039-20.96055614-20.96055614-26.01594693-53.04969094-12.5158708-79.44017299 13.50007615-26.39384164 42.47703739-41.07126961 71.7411997-36.34170891 7.34627202-7.8820424 14.03416742-15.50543675 19.96963301-22.76605243a95.44779117 95.44779117 0 0 0-98.26940408 22.77948939c-37.17307727 37.17475637-37.17307727 97.66309343 0 134.84288712 37.17475637 37.18147417 97.66981122 37.18147417 134.85128539 0a95.44779117 95.44779117 0 0 0 22.78620857-98.23245416c-7.27573177 5.9237091-14.91256307 12.59816753-22.7794894 19.93604266z m209.6475526-82.77908201c5.83973187 7.33955424 12.43693227 14.98646154 19.67739461 22.8920169 29.24904626-4.66741874 58.17394153 10.0385609 71.63874822 36.41896696 13.46480671 26.37872558 8.40773541 58.43258958-12.52762727 79.3813906-20.93872227 20.95215923-52.98754757 26.03106301-79.37803103 12.58137236-26.38712385-13.44969063-41.10989863-42.3678681-36.46263466-71.61691437-7.90051805-7.23206404-15.55246405-13.82254667-22.89705696-19.65388165a95.44611069 95.44611069 0 0 0 22.89705696 97.76722403c37.18147417 37.18147417 97.67652901 37.18147417 134.85296449 0 37.17139679-37.17979506 37.17811595-97.66645164 0-134.84960491a95.44779117 95.44779117 0 0 0-97.80081436-22.92056992zM602.2748328 372.65260852c-4.68589299-29.25576404 10.01336883-58.19913495 36.40049131-71.67233994 26.38712385-13.47488409 58.45106522-8.41445459 79.40322444 12.53434644 20.95383833 20.94879965 26.02098563 53.00938142 12.55282073 79.39986488-13.46816491 26.39048207-42.40481803 41.09646306-71.66394165 36.41896696-7.53605892 8.16420341-14.10302858 15.77752177-19.79496077 22.84667008a95.43771379 95.43771379 0 0 0 97.97884478-22.86850395c37.18147417-37.18147417 37.18147417-97.67149034 0-134.84960627-37.17979506-37.18147417-97.67652901-37.18147417-134.84960629 0a95.4393929 95.4393929 0 0 0-22.85674746 98.02923028c6.89615796-5.56428865 14.49435886-12.12454051 22.82987491-19.83862848z m-214.77348503 72.6985325c-6.15212502-7.30092521-12.95087018-14.84538102-20.32569248-22.62329284-29.29607218 4.84880875-58.367088-9.77823373-71.93938488-36.19055102-13.5689373-26.4123173-8.52530295-58.5635927 12.47220308-79.55774054 21.00086562-20.99246735 53.15550062-26.02266474 79.56613743-12.44029186 26.40559813 13.57733418 41.02088412 42.65842739 36.16199937 71.95114136a523.44791025 523.44791025 0 0 0 22.62497195 20.32569385 95.44275248 95.44275248 0 0 0-22.58130422-98.90090815c-37.18147417-37.17979506-97.69332418-37.17979506-134.8496063 0-37.15964031 37.18147417-37.18147417 97.66981122 0 134.8479258a95.48138151 95.48138151 0 0 0 98.87067605 22.5880234z m128.53792646 42.13105391a27.83655933 27.83655933 0 0 0-27.27223729 22.44190421 27.83823842 27.83823842 0 0 0 50.46657133 20.85474505 27.83488022 27.83488022 0 0 0-3.47159262-35.14420231 27.67028538 27.67028538 0 0 0-19.72274142-8.15244695z m0 0" p-id="10768" fill="#13227a"></path><path d="M649.29836316 677.85712158c1.58043999 1.68792878 5.46351628 6.08662345 6.27641037 6.89279837l0.40308814 0.38629158c0.20994165 0.24353199 0.44675586 0.45851235 0.70708165 0.64326195 9.48935492 8.53538032 23.14226805 9.19207785 31.10828767 1.19582611 7.47895564-7.47895564 7.38826064-19.9679539 0.30231575-29.31790742a83.49120372 83.49120372 0 0 0-6.05135263-6.01776231c-0.78434106-0.66509442-1.41080644-1.2445325-1.7181609-1.4830258-21.81040013-20.20812629-92.98727643-89.32925648-91.58822647-129.82612669 0.05542419-1.68624966 0-8.78563011 0-10.83801802-0.19986428-40.62787334 69.98944847-108.77319508 91.60838122-128.81001013 0.26872543-0.24017241 0.93381985-0.82297008 1.71816089-1.49310318a83.0142171 83.0142171 0 0 0 6.05135264-6.00768492c7.07082879-9.3533131 7.17663986-21.83895178-0.30231576-29.31790742-7.96937782-7.96601962-21.61893274-7.33955424-31.10828767 1.194147-0.26032716 0.18474821-0.49714137 0.40308815-0.70540254 0.64326056-0.13436272 0.13436272-0.26872543 0.25696895-0.40308815 0.3812543-0.8128927 0.8162523-4.69597037 5.21158739-6.27976993 6.90791442-21.28470575 22.80132327-84.31921249 86.75957247-124.17282215 89.78776745-3.13904473 0.24017241-13.87125306 0.19146601-16.49300168 0.08397722-40.79918597-1.60563203-107.46148193-70.23969825-127.2010185-91.58150868-0.24689157-0.26872543-0.81793139-0.93381985-1.48974497-1.7181609a80.44957179 80.44957179 0 0 0-6.01104313-6.05135263c-9.3533131-7.07082879-21.83727267-7.17663986-29.31790742 0.29727707-7.96769872 7.97273741-7.34459292 21.62565053 1.19246791 31.10492809 0.1881078 0.25864805 0.40644635 0.49714137 0.64326054 0.70876212l0.3846125 0.39301077c0.8128927 0.82129098 5.20822781 4.69597037 6.89783707 6.27976994 22.19165305 20.75901274 83.4458569 81.09619193 89.39811764 121.04217431 0.64326057 4.29624181 0.60295243 21.85070826-0.55088645 27.29407117-8.48499484 39.90399517-67.22157929 97.73531279-88.87578284 117.94679867-1.68960926 1.59051598-6.08494298 5.46351628-6.89783705 6.27976854l-0.3846125 0.39972857a4.03591465 4.03591465 0 0 0-0.64326056 0.70876213c-8.53873991 9.48935492-9.18871826 23.13890986-1.19414701 31.10492946 7.48063474 7.48231383 19.9645943 7.39497842 29.31790603 0.30567397a83.39882961 83.39882961 0 0 0 6.01104451-6.05135263c0.6718122-0.78434106 1.24285341-1.41416604 1.49646277-1.7181609 19.301179-20.84298995 83.26950558-86.76629027 124.25008021-91.37156702 3.69832945-0.41652373 16.78692055-0.40308815 20.19805028-0.07557895 39.89895647 3.76215053 102.27004928 67.07210188 123.42375052 89.69707383z m-102.66305867-131.9356179a43.27481541 43.27481541 0 1 1 0-61.19877967 42.98761571 42.98761571 0 0 1 0 61.19877967z m0 0" p-id="10769" fill="#13227a"></path><path d="M513.14040191 942.6117917c-114.63308172 0-222.40359718-44.64027505-303.46283919-125.69783793-81.05756291-81.05756291-125.69783793-188.82975747-125.69783655-303.46283781s44.64027505-222.40359718 125.69783655-303.46116009c81.05756291-81.05756291 188.82975747-125.69783793 303.46283919-125.69783655s222.4052763 44.64027505 303.4628392 125.69783655c81.05924199 81.05756291 125.69951705 188.82975747 125.69951704 303.46283919s-44.64027505 222.4052763-125.69951704 303.46283918c-81.05756291 81.05588241-188.82975747 125.69615746-303.4628392 125.69615746z m0-816.3313781c-213.48696257 0-387.17070235 173.6837398-387.17070235 387.17070236s173.68541888 387.17070235 387.17070235 387.17070234c213.48696257 0 387.17238146-173.6837398 387.17238284-387.17070234S726.62904497 126.2804136 513.14040191 126.2804136z" p-id="10770" fill="#13227a"></path></svg>