<?xml version="1.0" standalone="no"?><!DOCTYPE svg PUBLIC "-//W3C//DTD SVG 1.1//EN" "http://www.w3.org/Graphics/SVG/1.1/DTD/svg11.dtd"><svg t="1573697254117" class="icon" viewBox="0 0 1024 1024" version="1.1" xmlns="http://www.w3.org/2000/svg" p-id="2962" xmlns:xlink="http://www.w3.org/1999/xlink" width="16" height="16"><defs><style type="text/css"></style></defs><path d="M198.980856 298.117178a103.10519 103.10519 0 1 1 103.10519-103.10519 103.228228 103.228228 0 0 1-103.10519 103.10519z m100.45989 528.764757a103.10519 103.10519 0 1 0-103.105191 103.10519 103.228228 103.228228 0 0 0 103.117494-103.117494z m631.88225 2.583781a103.10519 103.10519 0 1 0-103.10519 103.105191 103.228228 103.228228 0 0 0 103.10519-103.105191z m0-634.515247a103.10519 103.10519 0 1 0-103.10519 103.105191 103.228228 103.228228 0 0 0 103.10519-103.055976z" fill="#A6BAFB" p-id="2963"></path><path d="M381.752646 766.642912c23.647754 69.835926 5.38903 148.505924-46.520373 200.415327a194.484934 194.484934 0 1 1-74.646681-321.594685l3.592687 1.230372-2.460745 2.94059c-12.955819 15.83489-27.683374 32.149626-40.380815 46.003616l-0.959691 1.045817-1.402624-0.221467a135.833091 135.833091 0 0 0-21.273135-1.673307 134.787274 134.787274 0 1 0 95.316934 230.079602 135.488587 135.488587 0 0 0 37.6863-116.713107l-0.221467-1.390321 1.033513-0.95969c13.62022-12.697441 28.298561-25.530223 45.991313-40.380816l2.965197-2.460744z m444.508868-131.79747a194.854045 194.854045 0 0 0-61.961544 10.064444l-3.592687 1.230373 2.362315 2.952893c11.07335 13.890902 24.053776 29.012176 39.581073 46.261995l0.959691 1.070423 1.414928-0.221467a137.08807 137.08807 0 0 1 21.359261-1.68561 133.58151 133.58151 0 0 1 95.083164 39.371911 134.885704 134.885704 0 1 1-228.443206 74.326784l0.221467-1.402624-1.045817-0.95969c-14.862896-13.62022-30.008778-26.57604-46.298906-39.605681l-2.952893-2.362315-1.230372 3.592687a194.398807 194.398807 0 1 0 321.877671-75.458727 191.864241 191.864241 0 0 0-137.334145-57.175396z m-312.243857-182.095086a58.504198 58.504198 0 0 0-41.623491 17.311337 57.741367 57.741367 0 0 0-17.311337 41.623492 58.504198 58.504198 0 0 0 17.311337 41.623491 57.741367 57.741367 0 0 0 41.623491 17.311337 58.762576 58.762576 0 0 0 41.635795-100.275334 57.753671 57.753671 0 0 0-41.635795-17.606626z m129.189081-192.319478l2.94059-2.3131c14.038547-11.07335 29.098303-24.016865 46.052831-39.617985l1.045817-0.95969-0.221467-1.402624a135.488587 135.488587 0 0 1 37.6863-116.713107 134.885704 134.885704 0 1 1 95.415364 230.079601 137.137285 137.137285 0 0 1-21.408476-1.648699l-1.402625-0.221467-0.95969 1.045817c-14.555303 15.83489-27.584945 30.882342-39.864059 46.01592l-2.460745 2.965197 3.617295 1.230372a196.035202 196.035202 0 0 0 62.37987 10.101356 192.59016 192.59016 0 0 0 137.531005-56.917018c75.840142-75.840142 75.840142-199.23417 0-275.074313a194.398807 194.398807 0 0 0-321.606989 199.873964zM197.356764 389.152417a193.882051 193.882051 0 0 0 63.979355-10.827275l3.60499-1.230372-2.460744-2.928286c-13.214197-15.810283-28.101701-31.989677-40.909876-45.732935l-0.95969-1.033512-1.402624 0.23377a135.906913 135.906913 0 0 1-21.974448 1.796344 134.848793 134.848793 0 1 1 95.50149-230.23955 135.587016 135.587016 0 0 1 37.686301 117.500545l-0.221467 1.365713 0.996601 0.959691c13.91551 13.435664 28.876836 26.822114 45.757542 40.946786l2.94059 2.460745 1.230372-3.617294c24.422888-70.217341 6.373328-149.4164-45.979009-201.781041A194.509541 194.509541 0 0 0 60.133353 332.063147a191.655077 191.655077 0 0 0 137.223411 57.08927z" fill="#7E52F3" p-id="2964"></path><path d="M782.164974 838.521256c3.198968 3.457346 10.938009 12.303722 12.537493 13.878598l2.140848 2.128544c19.20611 17.077566 46.692625 18.455583 62.748982 2.460744 14.936718-14.936718 14.936718-40.282386 0.52906-58.959435a132.141974 132.141974 0 0 0-12.303722-12.008433c-1.599484-1.328802-2.928286-2.460744-3.46965-2.928286-44.022717-40.602283-187.016574-179.831201-184.35897-261.195714v-21.937536c-0.270682-81.905877 140.877617-219.006251 184.35897-259.337853 0.52906-0.52906 1.870166-1.599484 3.46965-2.928285 2.669908-2.128544 10.679631-10.138267 12.303722-12.008433 14.136977-18.947732 14.407658-44.022717-0.52906-58.959436-15.994839-15.994839-43.493657-14.666037-62.748982 2.460745a4.76154 4.76154 0 0 0-1.328802 1.341105l-0.812046 0.799742c-1.599484 1.599484-9.338525 10.408949-12.537493 13.878599-42.952293 45.892883-169.692934 174.712852-249.999327 180.630942-6.397935 0.52906-28.015575 0.270682-33.084708 0.270682-82.176559-3.198968-216.114877-141.406677-256.126581-184.35897-0.52906-0.52906-1.599484-1.870166-2.928286-3.46965-2.140848-2.669908-10.138267-10.679631-12.008432-12.303722-18.947732-14.136977-44.022717-14.407658-58.959436 0.52906-15.994839 15.994839-14.666037 43.493657 2.460744 62.748982a4.663111 4.663111 0 0 0 1.328802 1.328802l0.799742 0.799742c1.611788 1.611788 10.408949 9.338525 13.878599 12.549797 44.822459 41.623491 168.09345 163.282695 180.089578 243.613695 1.328802 8.538783 1.328802 44.022717-1.05812 54.960726C349.418464 622.763187 231.228911 739.03336 187.735254 779.857109c-3.46965 3.198968-12.303722 10.938009-13.878599 12.537493l-2.140847 2.140848c-17.077566 19.20611-18.455583 46.692625-2.460745 62.748982 14.936718 14.949022 40.282386 14.949022 58.959436 0.52906a131.329929 131.329929 0 0 0 11.996129-12.303722c1.328802-1.599484 2.460744-2.928286 2.928286-3.46965 38.953584-41.832655 167.552086-174.491385 249.999327-183.82991 7.468359-0.812046 33.88445-0.812046 40.602283-0.270682 80.306393 7.739041 205.964306 135.008741 248.387539 180.630943zM575.647001 573.043846a87.245693 87.245693 0 1 1 0-123.258687c33.88445 34.155132 33.88445 89.374237 0 123.258687z m0 0" fill="" p-id="2965"></path></svg>